# xmcd CD database file
#
# Track frame offsets:
#	182
#	12275
#	29860
#	47887
#	52317
#	70607
#	88432
#	110822
#	131515
#	150255
#	158092
#	179110
#	182600
#	195320
#	213702
#
# Disc length: 2958 seconds
#
# Revision: 1
# Processed by: cddbd v1.4PL0 Copyright (c) Steve Scherf et al.
# Submitted via: CDex 1.50beta10
#
DISCID=de0b8c0f
DTITLE=Bush Babees - Gravity
DYEAR=1996
DGENRE=Hip-Hop
TTITLE0=Intro
TTITLE1=Gravity
TTITLE2=Wax
TTITLE3=The beat down
TTITLE4=Maybe
TTITLE5=Three Mc's
TTITLE6=S.O.S 
TTITLE7=God Complex
TTITLE8=The Ruler
TTITLE9=The ninth presentation
TTITLE10=The love song
TTITLE11=rock roots
TTITLE12=In Meh Dreams
TTITLE13=Melting plastic
TTITLE14=Outro
EXTD=YEAR: 1996
EXTT0=
EXTT1=
EXTT2=
EXTT3=
EXTT4=
EXTT5=
EXTT6=
EXTT7=
EXTT8=
EXTT9=
EXTT10=
EXTT11=
EXTT12=
EXTT13=
EXTT14=
PLAYORDER=
